<svg xmlns="http://www.w3.org/2000/svg" xmlns:xlink="http://www.w3.org/1999/xlink" version="1.1" x="0px" y="0px" viewBox="0 0 100 125" enable-background="new 0 0 100 100" xml:space="preserve">
    <path d="M50,5C27.638,5,5,11.237,5,23.16c0,2.79,1.254,5.266,3.441,7.426l25.964,29.129c0.17,0.211,0.405,0.826,0.418,1.088v26.689  C34.823,92.68,42.446,95,50,95c7.555,0,15.177-2.32,15.177-7.508v-26.68c0.013-0.271,0.248-0.887,0.411-1.09l25.971-29.137  C93.746,28.426,95,25.95,95,23.16C95,11.237,72.361,5,50,5z M50,34.823c-23.505,0-38.505-6.908-38.505-11.663  c0-4.757,15-11.665,38.505-11.665s38.505,6.908,38.505,11.665C88.505,27.915,73.505,34.823,50,34.823z" />
</svg>