<svg xmlns="http://www.w3.org/2000/svg" data-name="Layer 1" viewBox="0 0 100 125" x="0px" y="0px">
    <title>113all</title>
    <path d="M73.94,4.87H4.35a2,2,0,0,0-2,2V93.13a2,2,0,0,0,2,2H73.94a2,2,0,0,0,2-2V56.25L97.06,35.13a2,2,0,0,0,0-2.83L85.24,20.48a2,2,0,0,0-2.83,0L75.94,27V6.87A2,2,0,0,0,73.94,4.87Zm-2,86.26H6.35V8.87H71.94V31l-17,17H20.15v4H50.89l-9.25,9.25a2,2,0,0,0-.58,1.5L39.54,68H20.15v4H38.37l-1.9,6.55A2,2,0,0,0,38.93,81l16.49-4.62h0a2,2,0,0,0,.88-.5L71.94,60.25ZM44.12,66.56,51,73.48l-9.73,2.72Zm1.76-3.89,29-29,9,9-29,29ZM83.83,24.72l9,9L86.74,39.8l-9-9Z" />
    <rect x="20.15" y="28" width="38" height="4" />
</svg>