<svg xmlns="http://www.w3.org/2000/svg" xmlns:xlink="http://www.w3.org/1999/xlink" version="1.1" x="0px" y="0px" viewBox="0 0 100 125" style="enable-background:new 0 0 100 100;" xml:space="preserve">
    <g>
        <g>
            <path d="M68.7289963,87.8619995H31.2700005c-5.6739998,0-10.2910004-4.6169968-10.2910004-10.2910004V22.4290009    c0-5.6739998,4.6160011-10.2910004,10.2910004-10.2910004h37.4590034c5.673996,0,10.2910004,4.6160011,10.2910004,10.2910004    v55.1419983C79.0210037,83.2450027,74.4039993,87.8619995,68.7289963,87.8619995z M31.2700005,13.6850004    c-4.8220005,0-8.7439995,3.9229994-8.7439995,8.7440004v55.1419983c0,4.8219986,3.9230003,8.7440033,8.7439995,8.7440033    h37.4590034c4.8219986,0,8.7440033-3.9219971,8.7440033-8.7440033V22.4290009    c0-4.8220005-3.9219971-8.7440004-8.7440033-8.7440004H31.2700005z" />
        </g>
        <g>
            <path d="M68.7289963,91.4309998H31.2700005c-7.6420002,0-13.8600006-6.2180023-13.8600006-13.8600006V22.4290009    c0-7.6420002,6.2169991-13.8599997,13.8600006-13.8599997h37.4590034c7.6419983,0,13.8600006,6.217,13.8600006,13.8599997    v55.1419983C82.5899963,85.2129974,76.3720016,91.4309998,68.7289963,91.4309998z M31.2700005,10.1160002    c-6.7900009,0-12.3129997,5.5240002-12.3129997,12.3130007v55.1419983c0,6.7900009,5.5240002,12.3130035,12.3129997,12.3130035    h37.4590034c6.7900009,0,12.3130035-5.5230026,12.3130035-12.3130035V22.4290009    c0-6.79-5.5230026-12.3129997-12.3130035-12.3129997C68.7290039,10.1160011,31.2700005,10.1160011,31.2700005,10.1160002z" />
        </g>
        <g>
            <path d="M68.7289963,95H31.2700005c-9.6100006,0-17.4290009-7.8190002-17.4290009-17.4290009V22.4290009    C13.842,12.8190002,21.6599998,5,31.2700005,5h37.4590034c9.6100006,0,17.4290009,7.8179998,17.4290009,17.4290009v55.1419983    C86.1589966,87.1809998,78.3399963,95,68.7289963,95z M31.2700005,6.5469999c-8.7579994,0-15.882,7.125-15.882,15.8820009    v55.1419983c0,8.7580032,7.125,15.8820038,15.882,15.8820038h37.4590034c8.7580032,0,15.8820038-7.1240005,15.8820038-15.8820038    V22.4290009c0-8.7580004-7.1240005-15.882-15.8820038-15.882C68.7290039,6.5470009,31.2700005,6.5470009,31.2700005,6.5469999z" />
        </g>
        <g>
            <g>
                <path d="M45.098999,80.6939697h9.742981v-2.3839722h-9.742981V80.6939697z M38.5120239,80.6939697h5.6950073v-2.8299561     c0-0.2460327,0.1999512-0.4460449,0.4459839-0.4460449h10.6359863c0.2459717,0,0.4459839,0.2000122,0.4459839,0.4460449     v2.8299561h5.6950073v-8.9029541H38.5120239V80.6939697z M47.0159912,70.8989868h5.960022     c-0.8030396-0.7489624-1.8450317-1.1759644-2.9800415-1.1759644     C48.8610229,69.7230225,47.8200073,70.1500244,47.0159912,70.8989868z M53.2119751,29.1010132h-6.4819946     c0.8309937,0.9229736,1.9720459,1.46698,3.2410278,1.46698S52.3809814,30.0239868,53.2119751,29.1010132z M61.4290161,19.3059692     h-5.6950073v2.8300171c0,0.2460327-0.2000122,0.4459839-0.4459839,0.4459839H44.6530151     c-0.2460327,0-0.4459839-0.1999512-0.4459839-0.4459839v-2.8300171h-5.6950073v8.9030151h22.9169922V19.3059692z      M54.84198,19.3059692h-9.742981v2.3840332h9.742981V19.3059692z M68.7290039,19.3059692h-6.4069824v9.348999     c0,0.2460327-0.2000122,0.4460449-0.4460449,0.4460449h-7.5249634c-0.0130005,0.0369873-0.0239868,0.0750122-0.0480347,0.1090088     c-1.0050049,1.4299927-2.5839844,2.25-4.3319702,2.25c-1.75,0-3.3289795-0.8200073-4.3339844-2.25     c-0.0240479-0.0339966-0.0350342-0.0720215-0.0480347-0.1090088h-7.5239868     c-0.2459717,0-0.4459839-0.2000122-0.4459839-0.4460449v-9.348999h-6.348999     c-1.7210083,0-3.1220093,1.401001-3.1220093,3.1230469v27.125h16.1619873     C44.5430298,46.6030273,46.9910278,44.2650146,50,44.2650146c3.0100098,0,5.4580078,2.3389893,5.6900024,5.2890015h16.1619873     v-27.125C71.8519897,20.7069702,70.4509888,19.3059692,68.7290039,19.3059692z M68.7290039,15.7069702H31.2700195     c-3.7070312,0-6.7220459,3.0160522-6.7220459,6.7220459v55.1419678c0,3.7059937,3.0160522,6.7219849,6.7220459,6.7219849     h37.4589844c3.7069702,0,6.7230225-3.0159912,6.7219849-6.7219849V22.4290161     C75.4509888,18.7219849,72.4349976,15.7069702,68.7290039,15.7069702z M72.7440186,77.5709839     c0,2.2139893-1.8010254,4.0150146-4.0150146,4.0150146H31.2700195c-2.2139893,0-4.0150146-1.8010254-4.0150146-4.0150146     V22.4290161c0-2.2139893,1.8010254-4.0150146,4.0150146-4.0150146h37.4589844     c2.2150269,0,4.0159912,1.8010254,4.0150146,4.0150146V77.5709839z M50,45.15802     c-2.5170288,0-4.5679932,1.9379883-4.7969971,4.3959961h9.5939941C54.5679932,47.0960083,52.5170288,45.15802,50,45.15802z      M50,54.84198c2.5170288,0,4.5679932-1.9379883,4.7969971-4.3959961h-9.5939941     C45.4320068,52.9039917,47.4829712,54.84198,50,54.84198z M50,55.7349854c-3.0089722,0-5.4580078-2.3380127-5.6900024-5.2890015     H28.1469727v27.125c0,1.7219849,1.401001,3.1229858,3.1230469,3.1229858h6.348999v-9.348999     c0-0.2459717,0.1999512-0.4459839,0.4459839-0.4459839h7.742981c1.0079956-1.3129883,2.5180054-2.0679932,4.1879883-2.0679932     c0,0,0,0,0.0010376,0c1.6690063,0,3.1790161,0.7550049,4.1870117,2.0679932h7.6919556     c0.2460327,0,0.4460449,0.2000122,0.4460449,0.4459839v9.348999h6.4069824c1.7219849,0,3.1229858-1.401001,3.1240234-3.1229858     v-27.125H55.6900024C55.4580078,53.3969727,53.0100098,55.7349854,50,55.7349854z" />
            </g>
        </g>
    </g>
</svg>