<svg xmlns="http://www.w3.org/2000/svg" xmlns:xlink="http://www.w3.org/1999/xlink" version="1.1" x="0px" y="0px" viewBox="0 0 189.762 296.2375" style="enable-background:new 0 0 189.762 236.99;" xml:space="preserve">
    <g>
        <circle cx="121.301" cy="22.5" r="22.5" />
        <path d="M69.867,98.336h-0.076c-2.975-0.036-5.107-0.834-6.877-1.581c-1.744-0.77-3.211-1.602-4.504-2.336l-0.523-0.299   c-2.436-1.389-4.951-2.828-7.707-3.91c-1.179-0.465-2.214-1.134-3.101-1.939c-0.442-0.021-0.888-0.051-1.329-0.051   c-7.56,0.036-12.541,2.861-17.812,5.854c-0.879,0.498-1.754,0.993-2.635,1.474l-0.76,0.381c-2.016,1.019-4.529,2.284-8.543,2.403   h-0.033h-0.113c-0.008,0-0.016-0.001-0.024-0.001v20.701l-8.53,104.591c-0.555,6.807,4.514,12.772,11.318,13.327   c6.805,0.554,12.773-4.51,13.328-11.317l7.429-91.083h7.002l7.429,91.083c0.555,6.808,6.523,11.872,13.328,11.317   c6.805-0.555,11.873-6.52,11.318-13.327l-8.53-104.591V98.333c-0.013,0-0.026,0.002-0.04,0.002H69.867z" />
        <circle cx="42.875" cy="22.5" r="22.5" />
        <path d="M2.494,86.248c1.699,3.462,4.471,6.723,8.41,8.708c1.611,0.821,3.412,1.178,4.949,1.178c0.027,0,0.055,0,0.082-0.001   c3.949-0.116,6.172-1.465,8.314-2.518c6.193-3.372,12.021-7.554,21.502-7.597c1.5,0,3.094,0.111,4.813,0.369   c4.369,0.657,8.443-2.354,9.1-6.722c0.656-4.372-2.354-8.442-6.723-9.099c-2.498-0.376-4.896-0.548-7.189-0.548   C36.016,70,28.357,73.169,23.016,75.996c-2.541,1.339-4.619,2.6-6.066,3.379c-0.037-0.066-0.074-0.137-0.111-0.21   c-0.242-0.481-0.455-1.095-0.604-1.785l2.019-1.264c1.07-0.612,2.344-1.334,3.738-2.068c7.924-4.193,15.672-6.23,23.68-6.23   c2.547,0,5.078,0.192,7.6,0.571c2.626,0.395,4.861,1.772,6.41,3.693c2.562,1.131,4.81,2.334,6.865,3.492   c0.33,0.188,0.646,0.37,0.953,0.545l2.017,1.262c-0.15,0.688-0.364,1.302-0.607,1.783c-0.037,0.072-0.072,0.142-0.109,0.207   c-0.879-0.478-2.027-1.133-3.334-1.88c-1.186-0.668-2.528-1.407-4.018-2.151c0.475,1.456,0.637,3.037,0.395,4.65   c-0.727,4.825-4.861,8.485-9.701,8.669c2.623,1.14,5.006,2.504,7.354,3.845c1.355,0.767,2.703,1.529,4.277,2.223   c1.574,0.666,3.434,1.377,6.045,1.408c0.021,0,0.043,0,0.064,0c1.547,0.001,3.352-0.358,4.963-1.177   c3.945-1.993,6.711-5.252,8.412-8.71c1.711-3.489,2.486-7.266,2.494-11.085c-0.016-5.621-1.703-11.512-5.77-16.366   c-3.771-4.578-9.899-7.742-16.904-8.046c-0.291-0.033-0.584-0.054-0.884-0.054h-0.056l-0.455-2.368l0.285-0.002   c7.827,0,15.252,3.344,19.867,8.943c1.203,1.436,2.179,2.913,2.98,4.392c1.642,0.393,3.16,0.798,4.549,1.201   c1.864,0.542,3.495,1.079,4.892,1.579v54.587l-8.53,104.591c-0.555,6.807,4.514,12.772,11.318,13.327   c6.805,0.554,12.773-4.51,13.328-11.317l7.429-91.083h7.002l7.429,91.083c0.555,6.808,6.523,11.872,13.328,11.317   c6.805-0.555,11.873-6.52,11.318-13.327l-8.53-104.591V65.984c4.554-0.593,10.143-1.695,15.858-3.773   c5.983-2.21,12.223-5.55,17.22-11.035c5.016-5.44,8.398-13.238,8.337-22.36c-0.004-6.09-1.373-12.722-4.211-20.025   c-1.6-4.116-6.236-6.156-10.355-4.556c-4.118,1.6-6.158,6.236-4.558,10.354c2.285,5.874,3.126,10.572,3.122,14.226   c-0.063,5.478-1.643,8.712-4.188,11.612c-3.789,4.303-10.883,7.273-17.579,8.698c-6.65,1.474-12.618,1.572-13.626,1.566   c-0.148,0-0.188-0.002-0.188-0.002c-0.077-0.001-0.152,0.008-0.23,0.009h-34.847c-7.368-3.005-22.892-7.975-45.333-8.254   c-4.156,3.112-9.314,4.957-14.895,4.957c-4.36,0-8.461-1.13-12.029-3.107c-2.525,0.369-5.096,0.787-7.729,1.283   c-3.253,0.612-5.673,3.112-6.339,6.154c-4.496,1.313-8.341,3.834-11.004,7.066C1.705,63.651,0.016,69.546,0,75.164   c0.008,3.741,0.759,7.446,2.4,10.877C2.434,86.11,2.461,86.18,2.494,86.248z" />
    </g>

</svg>